<svg width="202" height="40" viewBox="0 0 202 40" fill="none" xmlns="http://www.w3.org/2000/svg">
<g clip-path="url(#clip0_2_15)">
<path d="M152.584 40.1667C101.723 40.1667 50.9389 40.1667 0.154907 40.1667C0.154907 26.8333 0.154907 13.5 0.154907 0.166672C67.4882 0.166672 134.822 0.166672 202.155 0.166672C202.155 13.5 202.155 26.8333 202.155 40.1667C185.657 40.1667 169.16 40.1667 152.584 40.1667ZM55.0375 28.2868C56.7456 24.8926 57.4719 21.5352 54.8237 18.5388C55.364 17.3839 56.1224 16.4076 56.2574 15.3401C56.5378 13.1242 56.0331 10.9821 54.7874 9.12368C54.2792 8.36554 53.5886 7.96576 52.6697 7.98771C50.9668 8.02838 49.2623 7.98779 47.5586 8.00375C46.4173 8.01445 46.2743 8.1897 46.2752 9.4149C46.2788 14.5532 46.2821 19.6914 46.2864 24.8297C46.2875 26.1073 46.2969 27.3849 46.2933 28.6625C46.2918 29.222 46.4665 29.5419 47.0541 29.5462C48.8837 29.5595 50.7151 29.5628 52.5419 29.6569C53.6077 29.7118 54.3967 29.3274 55.0375 28.2868ZM68.4503 8.57758C66.2679 7.5399 63.9768 8.05752 61.7304 8.08868C60.7381 8.10245 60.5343 8.50779 60.5341 9.61917C60.5337 11.2301 60.5449 12.841 60.5455 14.4519C60.5473 19.1182 60.545 23.7845 60.5474 28.4509C60.5479 29.4035 60.87 29.6385 62.1452 29.6402C63.4748 29.6419 63.8061 29.401 63.8135 28.4271C63.8141 28.3438 63.8136 28.2604 63.8136 28.1771C63.8136 27.4827 63.8136 26.7883 63.8136 26.0939C63.8136 24.4345 63.8136 22.7751 63.8136 21.1225C65.2012 21.0329 65.196 21.0352 65.6719 22.2928C66.4866 24.4457 67.33 26.5864 68.1145 28.7519C68.3554 29.4168 68.7745 29.6255 69.3573 29.6377C70.9751 29.6716 71.601 28.7022 70.9975 27.1177C70.2367 25.1203 69.493 23.1152 68.7171 21.1246C68.5454 20.6842 68.5237 20.4514 68.9602 20.1309C69.8968 19.4432 70.6481 18.4913 70.7936 17.2607C70.9642 15.8188 71.047 14.3391 70.9496 12.8928C70.8284 11.0942 69.9937 9.63842 68.4503 8.57758ZM124.824 26.0285C125.702 22.2628 125.769 18.453 125.277 14.6307C125.034 12.7391 124.685 10.8587 123.666 9.22185C123.158 8.40493 122.492 7.95859 121.537 7.98889C120.222 8.03058 118.906 7.98663 117.591 8.00354C116.451 8.01818 116.313 8.18745 116.314 9.41878C116.317 13.9144 116.319 18.4099 116.322 22.9055C116.323 24.7093 116.347 26.5136 116.312 28.3166C116.296 29.1085 116.448 29.6033 117.305 29.5957C118.954 29.581 120.605 29.6662 122.25 29.5826C122.697 29.5599 123.274 29.1924 123.529 28.7903C124.042 27.9818 124.374 27.0407 124.824 26.0285ZM74.8352 24.0721C74.7848 26.1872 75.4034 27.9457 77.1861 29.0486C78.187 29.6679 79.3031 29.6913 80.4152 29.6362C82.7456 29.5207 84.6358 27.6905 84.6833 25.3483C84.7681 21.1592 84.7778 16.9679 84.7753 12.7776C84.7746 11.5876 84.3658 10.5041 83.6436 9.57927C82.5526 8.18203 81.0749 7.9647 79.5081 7.99752C76.6403 8.05759 74.8408 9.98881 74.8283 13.0845C74.8138 16.6925 74.831 20.3006 74.8352 24.0721ZM174.039 29.4992C175.432 29.2924 175.466 29.2491 175.667 27.8152C175.789 26.9422 175.937 26.0732 176.075 25.1899C177.221 25.1899 178.315 25.1899 179.437 25.1899C179.619 26.3222 179.826 27.4073 179.958 28.503C180.036 29.1514 180.361 29.4462 180.907 29.4913C181.313 29.5248 181.737 29.5345 182.131 29.4455C183.033 29.2423 183.269 28.8438 183.118 27.8414C182.181 21.5997 181.231 15.3602 180.3 9.1174C180.218 8.56384 179.963 8.22635 179.473 8.19274C178.475 8.1242 177.473 8.08679 176.472 8.09606C175.652 8.10367 175.296 8.58863 175.183 9.49214C174.91 11.6899 174.532 13.8726 174.197 16.0615C173.59 20.0289 172.994 23.9984 172.368 27.9623C172.241 28.7683 172.552 29.1732 173.223 29.3611C173.446 29.4237 173.679 29.4491 174.039 29.4992ZM147.163 21.417C147.158 20.6394 147.144 19.8618 147.148 19.0842C147.152 18.4392 146.908 18.1142 146.269 18.1315C145.263 18.1588 144.254 18.1698 143.249 18.1257C142.658 18.0998 142.389 18.3837 142.304 18.9574C142.259 19.2573 142.212 19.5604 142.207 19.8628C142.185 21.4065 142.397 21.6426 143.783 21.6698C143.879 21.6717 143.975 21.701 144.088 21.7206C144.088 22.7493 144.153 23.7503 144.057 24.7331C144.018 25.1319 143.71 25.6403 143.387 25.843C141.874 26.7903 140.28 25.8089 140.185 23.9318C140.178 23.7931 140.171 23.6543 140.171 23.5155C140.17 20.3214 140.163 17.1274 140.173 13.9333C140.177 12.6355 140.625 11.879 141.468 11.6555C142.952 11.2623 143.705 11.8202 143.865 13.5303C143.927 14.2056 144.249 14.456 144.792 14.516C145.557 14.6003 146.339 14.7398 146.967 14.0599C146.997 14.027 147.001 13.9546 147 13.9012C146.955 12.1211 146.786 10.351 145.385 9.1463C143.657 7.66042 141.697 7.64923 139.767 8.58014C137.98 9.44168 136.949 11.0061 136.924 13.1555C136.881 16.8765 136.911 20.5984 136.908 24.32C136.905 27.9441 140.047 29.985 142.865 29.5849C145.748 29.1758 147.085 27.5407 147.156 24.4164C147.177 23.4726 147.162 22.5278 147.163 21.417ZM95.9919 17.4654C97.0133 18.6005 98.0802 19.6931 99.0409 20.8849C99.7384 21.7501 100.423 22.6808 100.88 23.7029C101.339 24.7311 100.705 25.7678 99.6718 26.0621C98.8763 26.2886 98.2236 25.7233 97.8753 24.6693C97.7619 24.3264 97.408 23.9402 97.092 23.8418C96.6179 23.6943 96.0783 23.7478 95.5701 23.7799C94.8329 23.8265 94.5765 24.253 94.6662 25.063C94.9659 27.7683 97.44 29.953 99.8956 29.6282C102.65 29.2639 104.642 26.4645 104.21 23.5919C103.976 22.0381 103.369 20.6765 102.379 19.5397C101.445 18.468 100.373 17.5292 99.4959 16.4101C98.866 15.6064 98.3466 14.6499 97.9829 13.6732C97.6565 12.7971 98.1407 11.9502 98.8813 11.6388C99.7558 11.271 100.298 11.5057 100.842 12.4438C100.942 12.6156 101.137 12.8199 101.302 12.8342C101.987 12.8938 102.68 12.9403 103.363 12.8867C103.915 12.8434 104.12 12.4729 104.018 11.8296C103.684 9.7278 102.304 8.24987 100.374 8.00649C97.848 7.68799 95.9029 8.70608 95.1248 10.8159C94.2652 13.147 94.6598 15.326 95.9919 17.4654ZM165.28 28.9685C165.28 23.1758 165.28 17.383 165.28 11.4875C166.393 11.4875 167.419 11.4945 168.445 11.4858C169.782 11.4743 170.023 11.1986 169.997 9.73006C169.993 9.48086 169.966 9.23141 169.938 8.98352C169.864 8.31606 169.596 7.97646 168.885 7.98402C165.531 8.0197 162.177 7.99992 158.823 7.99993C157.561 7.99993 157.317 8.25387 157.301 9.62738C157.297 9.93064 157.346 10.235 157.376 10.5382C157.439 11.1791 157.693 11.5231 158.372 11.4946C159.573 11.4441 160.778 11.4804 162.027 11.4804C162.027 11.9251 162.027 12.2262 162.027 12.5273C162.027 17.8295 162.02 23.1318 162.043 28.4338C162.045 28.7638 162.193 29.2284 162.421 29.3961C163.083 29.8818 164.606 29.6708 165.28 28.9685ZM29.874 18.5418C29.9637 16.8436 29.6251 15.2672 28.8523 13.7668C26.3205 8.85175 19.6646 8.12774 16.3108 12.4256C14.0183 15.3635 13.771 19.3918 15.6906 22.5303C17.5538 25.5767 21.0653 26.9252 24.4558 25.7963C25.4147 25.4771 26.2942 24.882 27.2928 24.3712C27.4992 24.8102 27.6351 25.3821 27.9656 25.7532C29.4107 27.3755 30.9098 28.9421 32.3944 30.5234C32.9596 31.1255 33.7353 31.2027 34.1641 30.7178C34.5917 30.2344 34.5048 29.5434 33.907 28.8978C32.4146 27.2859 30.9148 25.682 29.4138 24.0795C29.2901 23.9474 29.1482 23.811 28.9901 23.7453C28.699 23.6243 28.3895 23.5544 27.9682 23.4271C29.098 21.8924 29.6982 20.3879 29.874 18.5418ZM189.914 22.4167C189.914 18.3936 189.914 14.3704 189.914 10.3473C189.914 8.24986 189.717 8.06268 187.753 8.29277C187.624 8.30777 187.496 8.32835 187.368 8.33193C186.825 8.34709 186.629 8.61398 186.637 9.22156C186.667 11.6905 186.649 14.1601 186.649 16.6294C186.649 20.4861 186.647 24.3427 186.651 28.1993C186.652 29.5027 186.733 29.6105 187.967 29.6332C189.437 29.6602 190.907 29.6397 192.377 29.6397C194.483 29.6398 194.586 29.5166 194.423 27.1942C194.419 27.1389 194.416 27.0835 194.413 27.0281C194.38 26.4175 194.184 26.0842 193.511 26.1206C192.336 26.1843 191.155 26.1384 189.914 26.1384C189.914 24.9012 189.914 23.7423 189.914 22.4167ZM132.881 28.8041C132.882 27.6937 132.883 26.5833 132.883 25.473C132.883 20.0322 132.872 14.5914 132.896 9.15076C132.899 8.43345 132.59 8.07917 132.021 8.03752C131.203 7.97767 130.307 7.69086 129.654 8.53934C129.573 8.64421 129.608 8.86145 129.608 9.02662C129.606 15.55 129.604 22.0734 129.614 28.5967C129.614 28.827 129.665 29.1202 129.8 29.2762C130.364 29.9271 132.347 29.6954 132.881 28.8041ZM151.182 10.2561C151.182 16.2218 151.182 22.1875 151.182 28.1532C151.182 29.3478 151.399 29.6032 152.503 29.6326C152.885 29.6428 153.27 29.5884 153.651 29.5433C154.237 29.474 154.457 29.1378 154.455 28.4803C154.436 22.0429 154.431 15.6055 154.459 9.16819C154.462 8.39896 154.134 8.11491 153.534 8.01763C153.23 7.96829 152.917 7.9687 152.608 7.97616C151.379 8.00589 151.182 8.22228 151.182 9.50927C151.182 9.7035 151.182 9.89774 151.182 10.2561ZM14.0532 23.8543C14.9626 23.2163 14.3155 22.6192 14.0227 21.9337C12.6151 23.4489 11.263 24.933 9.874 26.3761C9.58602 26.6753 9.17705 26.8646 8.7957 27.029C8.22273 27.276 7.90081 27.7039 7.93004 28.3494C7.96077 29.0281 8.38644 29.4107 8.98387 29.4669C9.59212 29.524 9.98031 29.1685 10.1905 28.5357C10.3125 28.1682 10.4832 27.784 10.7283 27.5054C11.7912 26.2975 12.8897 25.1257 14.0532 23.8543ZM30.5039 13.7877C31.8346 12.3562 33.1534 10.9116 34.5053 9.50359C34.7994 9.19723 35.1938 8.97931 35.5736 8.79656C36.1335 8.52716 36.462 8.12475 36.3802 7.45124C36.3006 6.79607 35.9412 6.37851 35.3119 6.35242C34.688 6.32655 34.3426 6.71975 34.1413 7.34134C34.0221 7.7092 33.85 8.09673 33.6015 8.36992C32.3064 9.79371 30.9791 11.1836 29.6087 12.6431C29.8981 13.0826 30.1507 13.4663 30.5039 13.7877ZM88.7363 12.2278C89.1238 12.7157 89.6954 13.1378 90.0552 12.4559C90.5754 11.47 90.9391 10.3523 91.1767 9.24299C91.3287 8.53318 90.781 8.10077 90.1003 8.00602C89.2006 7.88079 88.4429 8.17961 88.3415 8.78833C88.2052 9.60641 88.1041 10.4576 88.7422 11.0048C88.7157 11.4293 88.6941 11.7736 88.7363 12.2278Z" fill="#FEFEFE"/>
<path d="M55.0061 28.337C54.3967 29.3274 53.6076 29.7118 52.5419 29.6569C50.715 29.5628 48.8837 29.5595 47.054 29.5462C46.4665 29.5419 46.2918 29.222 46.2933 28.6625C46.2968 27.3849 46.2875 26.1073 46.2864 24.8297C46.282 19.6914 46.2788 14.5532 46.2752 9.41489C46.2743 8.1897 46.4173 8.01444 47.5586 8.00375C49.2623 7.98778 50.9668 8.02838 52.6697 7.9877C53.5886 7.96576 54.2792 8.36554 54.7874 9.12367C56.0331 10.982 56.5377 13.1242 56.2574 15.3401C56.1223 16.4076 55.364 17.3839 54.8237 18.5387C57.4718 21.5352 56.7456 24.8926 55.0061 28.337ZM51.184 11.5005C50.6518 11.5005 50.1197 11.5005 49.5886 11.5005C49.5886 13.3823 49.5886 15.1712 49.5886 17.0267C50 17.0267 50.3793 17.0268 50.7585 17.0267C51.9334 17.0263 52.647 16.5913 52.9355 15.3816C53.125 14.5871 53.1399 13.676 52.9877 12.8708C52.7359 11.5386 52.5827 11.5005 51.184 11.5005ZM52.509 21.2649C51.7182 20.1556 50.6202 20.5645 49.594 20.5195C49.594 22.4007 49.594 24.2173 49.594 26.0812C50.4267 26.0812 51.2233 26.114 52.0147 26.0601C52.2368 26.045 52.5368 25.828 52.6428 25.6132C53.3423 24.1962 53.4167 22.7678 52.509 21.2649Z" fill="#030303"/>
<path d="M68.4981 8.61192C69.9937 9.63841 70.8284 11.0942 70.9496 12.8928C71.047 14.3391 70.9641 15.8188 70.7936 17.2607C70.6481 18.4913 69.8968 19.4432 68.9602 20.1309C68.5237 20.4514 68.5454 20.6842 68.7171 21.1246C69.493 23.1152 70.2367 25.1203 70.9975 27.1177C71.6009 28.7022 70.9751 29.6716 69.3573 29.6377C68.7745 29.6255 68.3554 29.4168 68.1145 28.7519C67.33 26.5864 66.4866 24.4457 65.6718 22.2928C65.196 21.0352 65.2011 21.0329 63.8136 21.1225C63.8136 22.7751 63.8136 24.4345 63.8136 26.0939C63.8136 26.7883 63.8136 27.4827 63.8136 28.1771C63.8136 28.2604 63.8141 28.3438 63.8135 28.4271C63.8061 29.401 63.4748 29.6419 62.1451 29.6402C60.87 29.6385 60.5479 29.4035 60.5474 28.4509C60.545 23.7845 60.5473 19.1182 60.5455 14.4519C60.5449 12.841 60.5337 11.2301 60.5341 9.61916C60.5343 8.50778 60.738 8.10244 61.7304 8.08868C63.9768 8.05752 66.2679 7.53989 68.4981 8.61192ZM63.8134 12.2635C63.8134 14.0289 63.8134 15.7942 63.8134 17.5808C64.6365 17.5808 65.3597 17.5565 66.0808 17.587C66.9497 17.6239 67.5358 17.1345 67.6391 16.3016C67.7835 15.1371 67.7592 13.94 67.7189 12.7603C67.6906 11.9341 67.1283 11.5494 66.4106 11.5133C65.5682 11.471 64.7226 11.5034 63.8134 11.5034C63.8134 11.7261 63.8134 11.913 63.8134 12.2635Z" fill="#030303"/>
<path d="M124.802 26.0914C124.374 27.0407 124.042 27.9818 123.529 28.7903C123.274 29.1924 122.697 29.5599 122.25 29.5826C120.605 29.6662 118.954 29.581 117.305 29.5957C116.448 29.6033 116.296 29.1085 116.312 28.3166C116.347 26.5137 116.323 24.7093 116.322 22.9055C116.319 18.4099 116.317 13.9144 116.314 9.41878C116.313 8.18745 116.451 8.01819 117.591 8.00354C118.906 7.98663 120.222 8.03058 121.537 7.98889C122.492 7.9586 123.158 8.40493 123.666 9.22185C124.685 10.8587 125.034 12.7391 125.277 14.6307C125.769 18.453 125.702 22.2628 124.802 26.0914ZM122.239 18.4186C122.18 17.3383 122.194 16.2457 122.041 15.181C121.888 14.124 121.601 13.084 121.309 12.0577C121.109 11.3524 120.485 11.4077 120.011 11.5524C119.801 11.6164 119.594 12.126 119.585 12.4406C119.54 13.8553 119.568 15.2726 119.568 16.689C119.568 19.5218 119.576 22.3546 119.562 25.1873C119.559 25.7417 119.656 26.0804 120.269 26.0921C121.191 26.1097 121.561 25.9452 121.712 24.7832C121.979 22.7306 122.074 20.6522 122.239 18.4186Z" fill="#030303"/>
<path d="M74.8348 23.9904C74.831 20.3006 74.8138 16.6925 74.8283 13.0845C74.8408 9.9888 76.6403 8.05758 79.5081 7.99751C81.0749 7.96469 82.5526 8.18202 83.6436 9.57926C84.3658 10.5041 84.7746 11.5876 84.7753 12.7776C84.7778 16.9679 84.7681 21.1592 84.6833 25.3483C84.6358 27.6905 82.7456 29.5207 80.4152 29.6362C79.3031 29.6913 78.187 29.6679 77.1861 29.0486C75.4034 27.9457 74.7848 26.1872 74.8348 23.9904ZM78.0156 15.5841C78.0157 18.1351 78.0068 20.6861 78.0235 23.2369C78.0269 23.7575 78.0682 24.2946 78.1953 24.7937C78.4157 25.6594 79.0746 26.1509 79.8466 26.1328C80.6206 26.1147 81.2615 25.5891 81.4607 24.7234C81.5708 24.2451 81.6197 23.7392 81.6221 23.2454C81.6366 20.3063 81.6334 17.3671 81.6249 14.4279C81.6237 14.0154 81.5973 13.5951 81.52 13.1923C81.3177 12.139 80.6403 11.5143 79.7784 11.5365C78.8906 11.5594 78.1791 12.2744 78.0715 13.3421C78.0024 14.0281 78.0307 14.7255 78.0156 15.5841Z" fill="#030303"/>
<path d="M173.973 29.4953C173.679 29.4491 173.446 29.4237 173.223 29.3611C172.552 29.1732 172.241 28.7683 172.368 27.9623C172.994 23.9984 173.59 20.0289 174.197 16.0615C174.532 13.8726 174.91 11.6899 175.183 9.49214C175.296 8.58863 175.652 8.10367 176.472 8.09606C177.473 8.08679 178.475 8.1242 179.473 8.19274C179.963 8.22635 180.218 8.56384 180.3 9.1174C181.231 15.3602 182.181 21.5997 183.118 27.8414C183.269 28.8438 183.033 29.2423 182.131 29.4455C181.737 29.5345 181.313 29.5248 180.907 29.4913C180.361 29.4462 180.036 29.1514 179.958 28.503C179.826 27.4073 179.619 26.3222 179.437 25.1899C178.315 25.1899 177.221 25.1899 176.075 25.1899C175.937 26.0732 175.789 26.9422 175.667 27.8152C175.466 29.2491 175.432 29.2924 173.973 29.4953ZM176.93 19.6002C176.834 20.2703 176.739 20.9405 176.644 21.6076C177.42 21.6076 178.146 21.6076 178.888 21.6076C178.525 19.2357 178.171 16.9266 177.817 14.6174C177.786 14.6218 177.754 14.6261 177.723 14.6305C177.467 16.2395 177.211 17.8485 176.93 19.6002Z" fill="#030303"/>
<path d="M147.163 21.5003C147.162 22.5278 147.177 23.4726 147.156 24.4164C147.085 27.5407 145.748 29.1758 142.865 29.5849C140.047 29.985 136.905 27.9441 136.908 24.32C136.911 20.5984 136.881 16.8765 136.924 13.1555C136.949 11.0061 137.98 9.44168 139.767 8.58014C141.697 7.64923 143.657 7.66043 145.385 9.1463C146.786 10.351 146.955 12.1211 147 13.9012C147.001 13.9546 146.997 14.027 146.967 14.0599C146.339 14.7398 145.557 14.6003 144.792 14.516C144.248 14.4561 143.927 14.2056 143.865 13.5303C143.705 11.8202 142.952 11.2623 141.468 11.6555C140.625 11.879 140.177 12.6355 140.173 13.9333C140.163 17.1274 140.17 20.3214 140.171 23.5155C140.171 23.6543 140.178 23.7931 140.185 23.9318C140.28 25.8089 141.874 26.7903 143.387 25.843C143.71 25.6403 144.018 25.1319 144.057 24.7331C144.153 23.7503 144.088 22.7493 144.088 21.7206C143.975 21.701 143.879 21.6717 143.783 21.6698C142.397 21.6426 142.185 21.4065 142.207 19.8628C142.212 19.5604 142.259 19.2573 142.304 18.9574C142.389 18.3837 142.658 18.0998 143.249 18.1257C144.254 18.1698 145.263 18.1588 146.269 18.1315C146.908 18.1142 147.152 18.4392 147.148 19.0842C147.144 19.8618 147.158 20.6394 147.163 21.5003Z" fill="#030303"/>
<path d="M95.9567 17.4183C94.6598 15.326 94.2652 13.147 95.1249 10.8158C95.9029 8.70607 97.848 7.68799 100.374 8.00649C102.304 8.24986 103.684 9.72779 104.018 11.8296C104.12 12.4729 103.915 12.8434 103.363 12.8867C102.68 12.9403 101.987 12.8937 101.302 12.8342C101.137 12.8199 100.942 12.6155 100.842 12.4438C100.298 11.5057 99.7558 11.271 98.8813 11.6388C98.1407 11.9502 97.6565 12.7971 97.9829 13.6732C98.3467 14.6499 98.866 15.6064 99.4959 16.4101C100.373 17.5292 101.446 18.468 102.379 19.5397C103.369 20.6765 103.976 22.0381 104.21 23.5919C104.642 26.4645 102.65 29.2639 99.8956 29.6282C97.44 29.953 94.9659 27.7683 94.6662 25.0629C94.5765 24.253 94.8329 23.8265 95.5701 23.7799C96.0783 23.7478 96.6179 23.6943 97.0921 23.8418C97.408 23.9402 97.7619 24.3264 97.8753 24.6693C98.2236 25.7233 98.8763 26.2886 99.6718 26.0621C100.705 25.7678 101.339 24.7311 100.88 23.7029C100.423 22.6807 99.7385 21.7501 99.0409 20.8849C98.0802 19.6931 97.0133 18.6005 95.9567 17.4183Z" fill="#030303"/>
<path d="M165.264 29.0391C164.606 29.6708 163.083 29.8818 162.421 29.3961C162.193 29.2284 162.045 28.7638 162.043 28.4338C162.02 23.1317 162.027 17.8295 162.027 12.5273C162.027 12.2262 162.027 11.925 162.027 11.4804C160.778 11.4804 159.573 11.4441 158.372 11.4946C157.693 11.5231 157.439 11.1791 157.376 10.5382C157.346 10.235 157.297 9.93063 157.301 9.62737C157.317 8.25386 157.561 7.99992 158.823 7.99992C162.177 7.99991 165.531 8.01969 168.885 7.98401C169.596 7.97645 169.864 8.31605 169.938 8.98351C169.966 9.2314 169.993 9.48085 169.997 9.73005C170.023 11.1986 169.782 11.4743 168.445 11.4858C167.419 11.4945 166.393 11.4875 165.28 11.4875C165.28 17.383 165.28 23.1758 165.264 29.0391Z" fill="#010101"/>
<path d="M189.914 22.5C189.914 23.7423 189.914 24.9012 189.914 26.1384C191.155 26.1384 192.336 26.1843 193.511 26.1206C194.184 26.0842 194.38 26.4175 194.413 27.0281C194.416 27.0835 194.419 27.1389 194.423 27.1942C194.586 29.5166 194.483 29.6398 192.377 29.6397C190.907 29.6397 189.437 29.6602 187.967 29.6332C186.733 29.6105 186.652 29.5027 186.651 28.1993C186.647 24.3427 186.649 20.4861 186.649 16.6294C186.649 14.1601 186.667 11.6905 186.637 9.22156C186.629 8.61398 186.825 8.34709 187.368 8.33193C187.496 8.32835 187.624 8.30777 187.753 8.29277C189.717 8.06269 189.914 8.24986 189.914 10.3473C189.914 14.3704 189.914 18.3936 189.914 22.5Z" fill="#020202"/>
<path d="M132.877 28.8761C132.347 29.6954 130.364 29.9271 129.8 29.2762C129.665 29.1202 129.614 28.827 129.614 28.5967C129.604 22.0734 129.606 15.55 129.608 9.02662C129.608 8.86144 129.573 8.6442 129.654 8.53934C130.307 7.69086 131.203 7.97767 132.021 8.03752C132.59 8.07917 132.899 8.43345 132.896 9.15076C132.872 14.5914 132.883 20.0322 132.883 25.473C132.883 26.5833 132.882 27.6937 132.877 28.8761Z" fill="#040404"/>
<path d="M151.182 10.174C151.182 9.89773 151.182 9.70349 151.182 9.50926C151.182 8.22227 151.379 8.00588 152.608 7.97615C152.917 7.96868 153.23 7.96827 153.534 8.01761C154.133 8.1149 154.462 8.39895 154.459 9.16818C154.431 15.6054 154.436 22.0429 154.455 28.4803C154.457 29.1378 154.237 29.474 153.651 29.5433C153.27 29.5884 152.885 29.6427 152.503 29.6326C151.399 29.6032 151.182 29.3478 151.182 28.1531C151.182 22.1874 151.182 16.2217 151.182 10.174Z" fill="#010101"/>
<path d="M88.7045 12.1729C88.6942 11.7736 88.7157 11.4293 88.7422 11.0048C88.1041 10.4576 88.2052 9.60641 88.3415 8.78833C88.4429 8.17961 89.2006 7.88079 90.1003 8.00602C90.781 8.10077 91.3287 8.53318 91.1767 9.24299C90.9391 10.3523 90.5754 11.47 90.0552 12.4559C89.6954 13.1378 89.1238 12.7157 88.7045 12.1729Z" fill="#060606"/>
<path d="M51.258 11.5005C52.5827 11.5005 52.7359 11.5387 52.9877 12.8708C53.1399 13.676 53.1251 14.5871 52.9355 15.3816C52.647 16.5913 51.9334 17.0263 50.7585 17.0267C50.3793 17.0268 50 17.0267 49.5886 17.0267C49.5886 15.1712 49.5886 13.3823 49.5886 11.5005C50.1197 11.5005 50.6519 11.5005 51.258 11.5005Z" fill="#FEFEFE"/>
<path d="M52.5418 21.3167C53.4167 22.7678 53.3424 24.1962 52.6429 25.6132C52.5368 25.828 52.2368 26.045 52.0147 26.0601C51.2233 26.114 50.4268 26.0812 49.5941 26.0812C49.5941 24.2173 49.5941 22.4007 49.5941 20.5195C50.6203 20.5645 51.7183 20.1556 52.5418 21.3167Z" fill="#FDFDFD"/>
<path d="M63.8134 12.1817C63.8134 11.913 63.8134 11.7261 63.8134 11.5034C64.7227 11.5034 65.5683 11.471 66.4106 11.5133C67.1283 11.5494 67.6907 11.9341 67.7189 12.7603C67.7592 13.94 67.7836 15.1371 67.6391 16.3016C67.5358 17.1345 66.9498 17.6239 66.0808 17.587C65.3597 17.5565 64.6366 17.5808 63.8134 17.5808C63.8134 15.7942 63.8134 14.0289 63.8134 12.1817Z" fill="#FEFEFE"/>
<path d="M122.24 18.5016C122.074 20.6522 121.979 22.7305 121.712 24.7832C121.561 25.9452 121.191 26.1097 120.269 26.0921C119.656 26.0804 119.559 25.7417 119.562 25.1873C119.576 22.3546 119.568 19.5218 119.568 16.689C119.568 15.2726 119.54 13.8553 119.585 12.4406C119.594 12.126 119.801 11.6164 120.011 11.5524C120.485 11.4077 121.109 11.3524 121.309 12.0577C121.601 13.0839 121.888 14.124 122.041 15.181C122.194 16.2457 122.18 17.3383 122.24 18.5016Z" fill="#FDFDFD"/>
<path d="M78.0155 15.501C78.0308 14.7255 78.0024 14.0281 78.0715 13.3421C78.1791 12.2744 78.8906 11.5594 79.7784 11.5365C80.6403 11.5143 81.3177 12.139 81.52 13.1923C81.5973 13.5951 81.6237 14.0154 81.6249 14.4279C81.6334 17.3671 81.6366 20.3063 81.6221 23.2454C81.6197 23.7392 81.5708 24.2451 81.4608 24.7234C81.2615 25.5891 80.6206 26.1147 79.8466 26.1328C79.0746 26.1509 78.4157 25.6594 78.1953 24.7937C78.0682 24.2946 78.0269 23.7575 78.0235 23.2369C78.0068 20.6861 78.0157 18.135 78.0155 15.501Z" fill="#FDFDFD"/>
<path d="M176.942 19.5289C177.211 17.8485 177.467 16.2395 177.723 14.6305C177.754 14.6261 177.786 14.6218 177.818 14.6174C178.171 16.9266 178.525 19.2357 178.888 21.6076C178.146 21.6076 177.42 21.6076 176.644 21.6076C176.739 20.9405 176.834 20.2703 176.942 19.5289Z" fill="#F6F6F6"/>
<path d="M25.082 24.014C21.8907 25.7843 18.0957 24.4343 16.4082 20.9756C14.854 17.7904 16.0537 13.5902 19.0136 11.8539C21.4743 10.4105 24.3042 10.7622 26.4763 12.7814C28.4022 14.5717 29.1435 17.7703 28.1457 20.4511C27.5677 22.0042 26.5574 23.2206 25.082 24.014ZM24.4594 18.0311C24.1771 18.0201 23.8945 17.9943 23.6125 18.001C22.9235 18.0173 22.0635 16.9901 22.1254 16.2481C22.1872 15.5065 21.9569 14.8963 21.353 14.4716C20.757 14.0525 20.148 14.0249 19.5363 14.3892C18.8902 14.774 18.527 15.4021 18.6627 16.1754C18.7527 16.6884 18.579 16.9466 18.2816 17.2331C18.0704 17.4365 17.8794 17.6642 17.6788 17.8803C16.82 18.805 16.8031 18.9529 17.4223 20.1409C17.4662 20.1144 17.5183 20.0967 17.5529 20.06C17.9936 19.5915 18.4612 19.1475 18.8628 18.6427C19.3227 18.0645 19.811 17.7544 20.5703 17.8192C21.3684 17.8873 22.2464 18.7782 22.1728 19.6462C22.0863 20.6673 22.7669 21.5602 23.7207 21.6768C24.6997 21.7965 25.7367 21.0332 25.6204 20.0189C25.504 19.0036 26.0531 18.5834 26.5565 18.0356C27.4534 17.0597 27.4708 16.9632 26.8755 15.6727C26.1099 16.4588 25.3492 17.24 24.4594 18.0311Z" fill="#FCFCFC"/>
<rect x="2" y="3" width="40" height="34" fill="white"/>
<path d="M33.3792 20.7817C33.1382 23.0935 32.2875 25.0586 30.6862 27.0633C31.2833 27.2295 31.722 27.3208 32.1346 27.4789C32.3587 27.5647 32.5598 27.7428 32.7351 27.9153C34.8627 30.0085 36.9884 32.1035 39.1036 34.2089C39.9509 35.0523 40.0741 35.9549 39.468 36.5863C38.8602 37.2195 37.7608 37.1188 36.9596 36.3324C34.8555 34.2669 32.7307 32.2205 30.6826 30.1015C30.2141 29.6168 30.0215 28.8698 29.729 28.2964C28.3136 28.9636 27.067 29.7409 25.7079 30.1579C20.9023 31.6324 15.9254 29.871 13.2845 25.8918C10.5638 21.7923 10.9142 16.5307 14.1636 12.6932C18.9171 7.07942 28.3509 8.02512 31.9393 14.4451C33.0347 16.4049 33.5145 18.4639 33.3792 20.7817ZM26.6702 27.7924C28.6867 26.7935 30.1186 25.2047 30.9379 23.1761C32.3521 19.6744 31.3014 15.4965 28.5718 13.158C25.493 10.5205 21.4821 10.0611 17.9944 11.9465C13.7991 14.2145 12.0987 19.7006 14.3016 23.8612C16.6935 28.3788 22.0723 30.1422 26.6702 27.7924Z" fill="#090909"/>
<path d="M13.0936 28.3862C11.0438 30.504 9.0416 32.5246 7.10402 34.6075C6.65722 35.0879 6.3461 35.7504 6.12367 36.384C5.74059 37.4752 5.03301 38.0883 3.92428 37.9897C2.83527 37.8929 2.05936 37.2332 2.00334 36.0629C1.95006 34.9498 2.53685 34.2119 3.58128 33.786C4.27642 33.5025 5.02188 33.1761 5.54682 32.6601C8.07871 30.1718 10.5434 27.6127 13.1092 25C13.6428 26.1821 14.8223 27.2116 13.0936 28.3862Z" fill="#060606"/>
<path d="M31.7434 15C31.1184 14.339 30.5971 13.6197 30 12.7958C32.828 10.0596 35.5671 7.45384 38.2399 4.78459C38.7528 4.27243 39.108 3.5459 39.3539 2.85626C39.7694 1.69092 40.4822 0.953757 41.7697 1.00226C43.0684 1.05117 43.8102 1.83401 43.9744 3.06228C44.1432 4.32496 43.4653 5.07937 42.3099 5.58444C41.5261 5.92704 40.7121 6.33559 40.1051 6.90994C37.3153 9.54962 34.5935 12.258 31.7434 15Z" fill="#060606"/>
<path d="M25.3879 20.1508C26.5681 19.1101 27.656 18.076 28.7509 17.0353C29.6023 18.7437 29.5773 18.8715 28.2947 20.1634C27.5748 20.8885 26.7895 21.4449 26.956 22.7888C27.1223 24.1316 25.6393 25.1421 24.2391 24.9836C22.8751 24.8292 21.9017 23.6472 22.0255 22.2955C22.1307 21.1464 20.875 19.9671 19.7337 19.8769C18.6477 19.7911 17.9494 20.2016 17.2916 20.967C16.7174 21.6353 16.0485 22.2231 15.4183 22.8433C15.3689 22.8919 15.2944 22.9153 15.2309 22.9493C14.3459 21.3776 14.3702 21.1819 15.5983 19.9577C15.8853 19.6717 16.1584 19.3703 16.4604 19.101C16.8858 18.7217 17.1342 18.38 17.0054 17.7008C16.8113 16.6771 17.3309 15.8457 18.2549 15.3363C19.1297 14.854 20.0007 14.8906 20.853 15.4454C21.7167 16.0076 22.0459 16.8153 21.9576 17.7971C21.8692 18.7793 23.099 20.1391 24.0844 20.1176C24.4876 20.1087 24.8918 20.1428 25.3879 20.1508Z" fill="#050505"/>
</g>
<defs>
<clipPath id="clip0_2_15">
<rect width="202" height="40" fill="white"/>
</clipPath>
</defs>
</svg>
